# xmcd CD database file
#
# Track frame offsets:
#	150
#	34110
#	64795
#	99735
#	108347
#	120850
#	127675
#	168732
#	199880
#
# Disc length: 3033 seconds
#
# Revision: 1
# Processed by: cddbd v1.5.1PL0 Copyright (c) Steve Scherf et al.
# Submitted via: CDex 1.51
#
DISCID=730bd709
DTITLE=Bon jovi - ROLL OVER EUROPE DISC2
DYEAR=1900
DGENRE=Rock
TTITLE0=I'LL SLEEP WHEN I'M DEAD
TTITLE1=BLOOD ON BLOOD
TTITLE2=BAD MEDICINE
TTITLE3=SHOUT
TTITLE4=HELP
TTITLE5=LITTLE WING - WANTED DEAD OR ALIVE
TTITLE6=IN THESE ARMS
TTITLE7=LIVIN' ON A PRAYER
TTITLE8=09
EXTD=
EXTT0=
EXTT1=
EXTT2=
EXTT3=
EXTT4=
EXTT5=
EXTT6=
EXTT7=
EXTT8=
PLAYORDER=
